<?xml version="1.0" encoding="utf-8"?>
<!-- Generator: Adobe Illustrator 18.0.0, SVG Export Plug-In . SVG Version: 6.00 Build 0)  -->
<!DOCTYPE svg PUBLIC "-//W3C//DTD SVG 1.1//EN" "http://www.w3.org/Graphics/SVG/1.1/DTD/svg11.dtd">
<svg version="1.1" id="Layer_1" xmlns="http://www.w3.org/2000/svg" xmlns:xlink="http://www.w3.org/1999/xlink" x="0px" y="0px"
	 viewBox="12.6 100.8 393.2 95.7" enable-background="new 12.6 100.8 393.2 95.7" xml:space="preserve">
<g id="Layer_2">
</g>
<g id="Layer_1_1_" xmlns:sodipodi="http://sodipodi.sourceforge.net/DTD/sodipodi-0.dtd" xmlns:svg="http://www.w3.org/2000/svg" xmlns:inkscape="http://www.inkscape.org/namespaces/inkscape" xmlns:rdf="http://www.w3.org/1999/02/22-rdf-syntax-ns#" xmlns:dc="http://purl.org/dc/elements/1.1/" xmlns:cc="http://creativecommons.org/ns#" sodipodi:docname="footer-logo.svg" inkscape:version="0.91 r13725">
	
		<sodipodi:namedview  objecttolerance="10" borderopacity="1" inkscape:zoom="1.0630915" inkscape:cx="318.88131" showgrid="false" guidetolerance="10" gridtolerance="10" inkscape:cy="23.857567" bordercolor="#666666" id="namedview25" pagecolor="#000000" inkscape:current-layer="Layer_1" inkscape:window-maximized="0" inkscape:window-y="55" inkscape:window-x="0" inkscape:window-height="1160" inkscape:window-width="1990" inkscape:pageshadow="2" inkscape:pageopacity="0">
		</sodipodi:namedview>
	<g enable-background="new    ">
		<path d="M244.9,185.9h-3.5v3.6h-14.2v7.1h-7v-24.7h21.2v3.6h3.5V185.9z M237.8,185.9v-10.5h-10.6v10.5H237.8z"/>
		<path d="M274.1,196.5h-10.6V193H260v-3.4l-3.6-0.1v7.1h-7v-24.7h21.2v3.6h3.5V186H267v3.6h3.6v3.4h3.5L274.1,196.5L274.1,196.5z
			 M267,182.4v-7.1h-10.6v10.6h7.1v-3.5H267z"/>
		<path d="M302.6,193h-3.5v3.6h-17.7V193h-3.5v-17.6h3.5v-3.6h17.7v3.6h3.5V193z M295.5,193v-17.6h-10.6V193H295.5z"/>
		<path d="M329.1,193h-3.6v3.6h-17.7V193h-3.4v-3.4h7v3.4H322v-21.2h7.1L329.1,193L329.1,193z"/>
		<path d="M357.3,196.5h-24.7v-24.7h24.7v3.6h-17.7v7.1h14.2v3.5h-14.2v7.1h17.7V196.5z"/>
		<path d="M383.9,193h-3.5v3.6h-14.1V193l-3.6-0.1v-3.4h-3.4v-10.7h3.4v-3.4h3.6v-3.6h14.1v3.6h3.5v3.4h-7.1v-3.4h-7v3.4h-3.5v10.7
			h3.5v3.4l7-0.1v-3.4h7.1V193z"/>
		<path d="M405.8,175.4h-7.1v21.2h-7v-21.2h-7.1v-3.6h21.2V175.4z"/>
	</g>
	<g enable-background="new    ">
		<path d="M71.1,151h-8.3v8.5H12.6v-58.6h50.2v8.5h8.3v16.6l-8.3,0.1v7h8.3V151z M54.3,125.9v-16.6H29.2v16.7L54.3,125.9z M54.3,151
			v-18H29.2v18H54.3z"/>
		<path d="M141.9,151h-8.3v8.5H91.7V151h-8.3v-50.2h16.6V151h25.1v-50.2h16.8V151z"/>
		<path d="M197.5,109.3h-16.7v50.2h-16.6v-50.2h-16.8v-8.5h50.2V109.3z"/>
		<path d="M251.1,109.3h-16.7v50.2h-16.6v-50.2h-16.8v-8.5h50.2L251.1,109.3L251.1,109.3z"/>
		<path d="M315.7,159.5h-58.5v-58.6h58.5v8.5h-41.9v16.7h33.5v8.2h-33.5V151h41.9V159.5z"/>
		<path d="M382.7,159.5h-25.1V151h-8.3v-8.2l-8.5-0.1v16.7h-16.6v-58.6h50.2v8.5h8.3v25.1h-16.8v8.5h8.5v8.2h8.3L382.7,159.5
			L382.7,159.5z M366,126.1v-16.7h-25.1v25.1h16.8v-8.3H366z"/>
	</g>
</g>
</svg>
