<?xml version="1.0" encoding="utf-8"?>
<!-- Generator: Adobe Illustrator 18.0.0, SVG Export Plug-In . SVG Version: 6.00 Build 0)  -->
<!DOCTYPE svg PUBLIC "-//W3C//DTD SVG 1.1//EN" "http://www.w3.org/Graphics/SVG/1.1/DTD/svg11.dtd">
<svg version="1.1" xmlns="http://www.w3.org/2000/svg" xmlns:xlink="http://www.w3.org/1999/xlink" x="0px" y="0px"
	 viewBox="0 0 634 170" enable-background="new 0 0 634 170" xml:space="preserve">
<g id="Layer_2">
</g>
<g id="Layer_1" xmlns:sodipodi="http://sodipodi.sourceforge.net/DTD/sodipodi-0.dtd" xmlns:svg="http://www.w3.org/2000/svg" xmlns:inkscape="http://www.inkscape.org/namespaces/inkscape" xmlns:rdf="http://www.w3.org/1999/02/22-rdf-syntax-ns#" xmlns:dc="http://purl.org/dc/elements/1.1/" xmlns:cc="http://creativecommons.org/ns#" sodipodi:docname="footer-logo.svg" inkscape:version="0.91 r13725">
	
		<sodipodi:namedview  objecttolerance="10" borderopacity="1" inkscape:zoom="1.0630915" inkscape:cx="318.88131" showgrid="false" guidetolerance="10" gridtolerance="10" inkscape:cy="23.857567" bordercolor="#666666" id="namedview25" pagecolor="#000000" inkscape:current-layer="Layer_1" inkscape:window-maximized="0" inkscape:window-y="55" inkscape:window-x="0" inkscape:window-height="1160" inkscape:window-width="1990" inkscape:pageshadow="2" inkscape:pageopacity="0">
		</sodipodi:namedview>
	<g enable-background="new    ">
		<path fill="#FFFFFF" d="M370.1,141.1h-5.3v5.4h-21.4v10.7h-10.6v-37.3h32v5.4h5.3V141.1z M359.4,141.1v-15.9h-16v15.9H359.4z"/>
		<path fill="#FFFFFF" d="M414.2,157.1h-16v-5.4h-5.3v-5.2l-5.4-0.1v10.7h-10.6v-37.3h32v5.4h5.3v16h-10.7v5.4h5.4v5.2h5.3V157.1z
			 M403.5,135.8v-10.7h-16v16h10.7v-5.3H403.5z"/>
		<path fill="#FFFFFF" d="M457.3,151.7h-5.3v5.4h-26.7v-5.4H420v-26.6h5.3v-5.4h26.7v5.4h5.3V151.7z M446.6,151.7v-26.6h-16v26.6
			H446.6z"/>
		<path fill="#FFFFFF" d="M497.3,151.7h-5.4v5.4h-26.7v-5.4H460v-5.2h10.6v5.2h16v-32h10.7V151.7z"/>
		<path fill="#FFFFFF" d="M539.9,157.1h-37.3v-37.3h37.3v5.4h-26.7v10.7h21.4v5.3h-21.4v10.7h26.7V157.1z"/>
		<path fill="#FFFFFF" d="M580.2,151.7h-5.3v5.4h-21.3v-5.4l-5.4-0.1v-5.2h-5.2v-16.1h5.2v-5.2h5.4v-5.4h21.3v5.4h5.3v5.2h-10.7
			v-5.2h-10.6v5.2h-5.3v16.1h5.3v5.2l10.6-0.1v-5.2h10.7V151.7z"/>
		<path fill="#FFFFFF" d="M613.3,125.1h-10.7v32h-10.6v-32h-10.7v-5.4h32V125.1z"/>
	</g>
	<g enable-background="new    ">
		<path fill="#FFFFFF" d="M107.5,88.3H94.9v12.8H19.1V12.5h75.8v12.8h12.6v25.1l-12.6,0.1v10.6h12.6V88.3z M82.1,50.4V25.3H44.2
			v25.3L82.1,50.4z M82.1,88.3V61.1H44.2v27.2H82.1z"/>
		<path fill="#FFFFFF" d="M214.5,88.3h-12.6v12.8h-63.3V88.3h-12.5V12.5h25.1v75.8h37.9V12.5h25.4V88.3z"/>
		<path fill="#FFFFFF" d="M298.5,25.3h-25.3v75.8h-25.1V25.3h-25.4V12.5h75.8V25.3z"/>
		<path fill="#FFFFFF" d="M379.4,25.3h-25.3v75.8H329V25.3h-25.4V12.5h75.8V25.3z"/>
		<path fill="#FFFFFF" d="M477.1,101.1h-88.4V12.5h88.4v12.8h-63.3v25.3h50.7V63h-50.7v25.3h63.3V101.1z"/>
		<path fill="#FFFFFF" d="M578.4,101.1h-37.9V88.3h-12.6V75.9l-12.8-0.1v25.3H490V12.5h75.8v12.8h12.6v37.9h-25.4v12.8h12.8v12.4
			h12.6V101.1z M553.1,50.6V25.3h-37.9v37.9h25.4V50.6H553.1z"/>
	</g>
</g>
</svg>
